<?xml version="1.0" encoding="UTF-8"?>
<svg width="472px" height="55px" viewBox="0 0 472 55" version="1.1" xmlns="http://www.w3.org/2000/svg" xmlns:xlink="http://www.w3.org/1999/xlink">
    <!-- Generator: Sketch 54.1 (76490) - https://sketchapp.com -->
    <title>Group 106</title>
    <desc>Created with Sketch.</desc>
    <defs>
        <polygon id="path-1" points="0.9778 0.8614 8.4438 0.8614 8.4438 15 0.9778 15"></polygon>
        <polygon id="path-3" points="0.0661 0.6597 13.559 0.6597 13.559 26.2127 0.0661 26.2127"></polygon>
    </defs>
    <g id="Symbols" stroke="none" stroke-width="1" fill="none" fill-rule="evenodd">
        <g id="Header" transform="translate(-102.000000, -43.000000)">
            <g id="Group-107" transform="translate(102.000000, 42.000000)">
                <g id="Group-106" transform="translate(0.000000, 0.037800)">
                    <path d="M162.2461,53.0764 L159.4491,53.0764 L159.4491,44.6194 C159.4491,44.2974 159.3611,44.0564 159.1841,43.9014 C159.0091,43.7494 158.7711,43.6704 158.4651,43.6704 C158.3311,43.6704 158.1811,43.6844 158.0141,43.7094 C157.8491,43.7344 157.7091,43.7704 157.5991,43.8154 L157.5991,53.0764 L154.8011,53.0764 L154.8011,42.0134 L157.0921,42.0134 L157.2661,42.4884 C157.6561,42.2604 158.0221,42.0984 158.3641,42.0044 C158.7061,41.9094 159.0971,41.8614 159.5421,41.8614 C160.3931,41.8614 161.0571,42.0924 161.5311,42.5524 C162.0081,43.0134 162.2461,43.6674 162.2461,44.5164 L162.2461,53.0764 Z" id="Fill-2" fill="#B4B4B5"></path>
                    <path d="M172.8862,45.177 L170.4182,45.177 C170.4182,44.498 170.3672,44.06 170.2672,43.859 C170.1652,43.66 169.9952,43.564 169.7572,43.564 C169.3582,43.564 169.1082,43.85 169.0082,44.419 C168.9042,44.989 168.8552,46.024 168.8552,47.52 C168.8552,49.239 168.9132,50.329 169.0312,50.789 C169.1482,51.252 169.4052,51.481 169.8052,51.481 C170.0492,51.481 170.2322,51.407 170.3512,51.265 C170.4722,51.118 170.5532,50.801 170.5942,50.321 L172.6652,50.321 C172.6652,51.298 172.4052,52.02 171.8822,52.483 C171.3622,52.948 170.5802,53.183 169.5392,53.183 C168.3622,53.183 167.4692,52.708 166.8592,51.754 C166.2522,50.808 165.9472,49.392 165.9472,47.513 C165.9472,45.649 166.2622,44.24 166.8942,43.289 C167.5252,42.336 168.4742,41.862 169.7442,41.862 C170.7572,41.862 171.5332,42.135 172.0742,42.684 C172.6142,43.232 172.8862,44.063 172.8862,45.177" id="Fill-4" fill="#B4B4B5"></path>
                    <path d="M182.6226,43.2493 C182.0456,42.3243 181.0896,41.8613 179.7546,41.8613 C178.4886,41.8613 177.5546,42.3203 176.9496,43.2373 C176.3476,44.1543 176.0446,45.5793 176.0446,47.5133 C176.0446,49.3923 176.3546,50.8083 176.9756,51.7543 C177.5966,52.7083 178.5226,53.1833 179.7546,53.1833 C181.0136,53.1833 181.9516,52.7323 182.5666,51.8283 C183.1816,50.9303 183.4886,49.4893 183.4886,47.5133 C183.4886,45.5943 183.1996,44.1763 182.6226,43.2493 M180.4206,50.7773 C180.3126,51.2493 180.0966,51.4803 179.7676,51.4803 C179.4206,51.4803 179.1966,51.2623 179.0996,50.8193 C179.0006,50.3823 178.9516,49.2943 178.9516,47.5673 C178.9516,45.7953 178.9976,44.6843 179.0886,44.2363 C179.1816,43.7853 179.4086,43.5633 179.7676,43.5633 C180.1306,43.5633 180.3586,43.7793 180.4466,44.2083 C180.5386,44.6443 180.5816,45.7463 180.5816,47.5213 C180.5816,49.2253 180.5286,50.3083 180.4206,50.7773" id="Fill-6" fill="#B4B4B5"></path>
                    <path d="M192.6396,44.4006 C192.4186,44.3156 192.1986,44.2466 191.9806,44.1966 C191.7646,44.1476 191.5326,44.1246 191.2886,44.1246 C191.0276,44.1246 190.7746,44.1416 190.5276,44.1716 C190.2796,44.2086 190.1016,44.2696 189.9926,44.3606 L189.9926,53.0766 L187.1936,53.0766 L187.1936,42.0136 L189.4836,42.0136 L189.6586,42.5066 C189.9126,42.2876 190.2126,42.1226 190.5526,42.0156 C190.8916,41.9166 191.2676,41.8616 191.6816,41.8616 C191.8556,41.8616 192.0226,41.8816 192.1866,41.9216 C192.3486,41.9626 192.4996,42.0156 192.6396,42.0866 L192.6396,44.4006 Z" id="Fill-8" fill="#B4B4B5"></path>
                    <g id="Group-12" transform="translate(195.000000, 41.000000)">
                        <mask id="mask-2" fill="white">
                            <use xlink:href="#path-1"></use>
                        </mask>
                        <g id="Clip-11"></g>
                        <path d="M8.4048,4.6584 C8.3788,4.1374 8.3408,3.7264 8.2948,3.4224 C8.1848,2.6064 7.9128,1.9754 7.4818,1.5314 C7.0508,1.0864 6.4648,0.8614 5.7248,0.8614 C5.2688,0.8614 4.8578,0.9094 4.4828,1.0044 C4.1098,1.0984 3.7638,1.2684 3.4418,1.5214 L3.2888,1.0134 L0.9778,1.0134 L0.9778,15.0004 L3.7728,15.0004 L3.7728,11.8104 C3.8798,11.8964 4.0718,11.9614 4.3468,12.0064 C4.6218,12.0524 4.9758,12.0764 5.4018,12.0764 C6.2228,12.0764 6.8908,11.8234 7.4028,11.3174 C7.9178,10.8094 8.2178,10.1344 8.3038,9.2834 C8.3578,8.7654 8.3918,8.2764 8.4128,7.8164 C8.4338,7.3564 8.4438,6.8424 8.4438,6.2724 C8.4438,5.7184 8.4318,5.1814 8.4048,4.6584 M5.5008,8.1204 C5.4778,8.8514 5.4598,9.3234 5.4418,9.5404 C5.4418,9.8564 5.3598,10.0964 5.1978,10.2674 C5.0368,10.4404 4.8368,10.5234 4.5988,10.5234 C4.3908,10.5234 4.2258,10.5144 4.1048,10.4864 C3.9828,10.4634 3.8738,10.4074 3.7728,10.3284 L3.7728,2.7894 C4.3018,2.6824 4.5378,2.6344 4.4828,2.6484 C4.4278,2.6644 4.4278,2.6704 4.4858,2.6704 C4.7688,2.6704 4.9838,2.7524 5.1248,2.9194 C5.2668,3.0874 5.3628,3.3344 5.4138,3.6634 C5.4608,3.9764 5.4928,4.3474 5.5088,4.7684 C5.5278,5.1914 5.5358,5.6994 5.5358,6.2934 C5.5358,6.7864 5.5258,7.3924 5.5008,8.1204" id="Fill-10" fill="#B4B4B5" mask="url(#mask-2)"></path>
                    </g>
                    <path d="M213.5278,43.2493 C212.9488,42.3243 211.9938,41.8613 210.6568,41.8613 C209.3928,41.8613 208.4578,42.3203 207.8538,43.2373 C207.2508,44.1543 206.9498,45.5793 206.9498,47.5133 C206.9498,49.3923 207.2578,50.8083 207.8808,51.7543 C208.5008,52.7083 209.4258,53.1833 210.6568,53.1833 C211.9178,53.1833 212.8558,52.7323 213.4698,51.8283 C214.0858,50.9303 214.3928,49.4893 214.3928,47.5133 C214.3928,45.5943 214.1038,44.1763 213.5278,43.2493 M211.3248,50.7773 C211.2188,51.2493 211.0008,51.4803 210.6728,51.4803 C210.3248,51.4803 210.1008,51.2623 210.0048,50.8193 C209.9038,50.3823 209.8558,49.2943 209.8558,47.5673 C209.8558,45.7953 209.9018,44.6843 209.9958,44.2363 C210.0868,43.7853 210.3128,43.5633 210.6728,43.5633 C211.0338,43.5633 211.2628,43.7793 211.3508,44.2083 C211.4408,44.6443 211.4868,45.7463 211.4868,47.5213 C211.4868,49.2253 211.4338,50.3083 211.3248,50.7773" id="Fill-13" fill="#B4B4B5"></path>
                    <path d="M223.5435,44.4006 C223.3225,44.3156 223.1035,44.2466 222.8865,44.1966 C222.6685,44.1476 222.4395,44.1246 222.1935,44.1246 C221.9335,44.1246 221.6785,44.1416 221.4325,44.1716 C221.1835,44.2086 221.0055,44.2696 220.8965,44.3606 L220.8965,53.0766 L218.0995,53.0766 L218.0995,42.0136 L220.3905,42.0136 L220.5645,42.5066 C220.8175,42.2876 221.1145,42.1226 221.4565,42.0156 C221.7975,41.9166 222.1725,41.8616 222.5845,41.8616 C222.7585,41.8616 222.9285,41.8816 223.0895,41.9216 C223.2535,41.9626 223.4055,42.0156 223.5435,42.0866 L223.5435,44.4006 Z" id="Fill-15" fill="#B4B4B5"></path>
                    <path d="M234.0635,45.0042 C234.0635,44.0142 233.7735,43.2472 233.1975,42.6922 C232.6205,42.1412 231.8345,41.8612 230.8385,41.8612 C230.2685,41.8612 229.7245,41.9072 229.2085,41.9982 C228.6935,42.0862 228.2105,42.2362 227.7635,42.4422 L227.7635,44.1002 C228.1475,43.8772 228.5115,43.7212 228.8575,43.6302 C229.2005,43.5422 229.5995,43.4962 230.0545,43.4962 C230.4685,43.4962 230.7835,43.6122 231.0025,43.8412 C231.2215,44.0712 231.3325,44.3792 231.3325,44.7642 L231.3325,45.5642 C231.2025,45.3942 231.0045,45.2532 230.7395,45.1472 C230.4755,45.0372 230.1705,44.9832 229.8325,44.9832 C228.7115,44.9832 227.8875,45.3152 227.3615,45.9792 C226.8355,46.6362 226.5735,47.6722 226.5735,49.0842 C226.5735,50.3592 226.8465,51.3622 227.3925,52.0902 C227.9385,52.8202 228.6475,53.1832 229.5165,53.1832 C229.9845,53.1832 230.3845,53.1342 230.7165,53.0392 C231.0505,52.9482 231.3135,52.8052 231.5065,52.6202 L231.7715,53.0762 L234.0635,53.0762 L234.0635,45.0042 Z M230.9245,51.5412 C230.7335,51.6172 230.5405,51.6532 230.3405,51.6532 C229.9805,51.6532 229.7275,51.5012 229.5845,51.1942 C229.4425,50.8842 229.3715,50.1992 229.3715,49.1332 C229.3715,48.2162 229.4555,47.5672 229.6285,47.1872 C229.7995,46.8102 230.0795,46.6172 230.4655,46.6172 C230.6905,46.6172 230.8785,46.6692 231.0235,46.7672 C231.1705,46.8672 231.2725,47.0142 231.3325,47.2112 L231.3325,51.2862 C231.2485,51.3872 231.1145,51.4692 230.9245,51.5412 L230.9245,51.5412 Z" id="Fill-17" fill="#B4B4B5"></path>
                    <path d="M242.9629,43.4114 L241.2449,43.4114 L241.2449,50.3074 C241.2449,50.8134 241.3509,51.1584 241.5559,51.3314 C241.7649,51.5014 242.1589,51.5904 242.7439,51.5904 L242.7439,53.0764 L241.1539,53.0764 C240.2549,53.0764 239.5759,52.8564 239.1169,52.4184 C238.6559,51.9824 238.4279,51.3164 238.4279,50.4144 L238.4279,43.3924 L237.3469,43.3924 L237.3469,42.0144 L238.4279,42.0144 L238.4279,38.6334 L241.2449,38.6334 L241.2449,42.0144 L242.9629,42.0144 L242.9629,43.4114 Z" id="Fill-19" fill="#B4B4B5"></path>
                    <path d="M250.8452,46.1038 C250.8452,45.1288 250.7952,44.4608 250.6902,44.1018 C250.5882,43.7438 250.3502,43.5638 249.9782,43.5638 C249.6192,43.5638 249.3882,43.7208 249.2792,44.0408 C249.1682,44.3608 249.1142,45.0488 249.1142,46.1038 L250.8452,46.1038 Z M253.1582,47.6958 L249.1062,47.6958 C249.1062,49.3248 249.1682,50.3668 249.2962,50.8108 C249.4202,51.2578 249.6852,51.4808 250.0882,51.4808 C250.3602,51.4808 250.5602,51.3948 250.6922,51.2218 C250.8232,51.0478 250.8912,50.7498 250.8912,50.3208 L252.8932,50.3208 C252.8932,51.3008 252.6402,52.0198 252.1332,52.4858 C251.6262,52.9488 250.8412,53.1828 249.7762,53.1828 C248.6062,53.1828 247.7162,52.7078 247.1092,51.7538 C246.5022,50.8078 246.1992,49.3918 246.1992,47.5128 C246.1992,45.6488 246.5142,44.2398 247.1442,43.2898 C247.7722,42.3358 248.7182,41.8618 249.9852,41.8618 C251.0742,41.8618 251.8762,42.2448 252.3892,43.0088 C252.9012,43.7708 253.1582,44.9178 253.1582,46.4448 L253.1582,47.6958 Z" id="Fill-21" fill="#B4B4B5"></path>
                    <path d="M264.1558,38.6331 L261.3588,38.6331 L261.3588,42.2731 C261.1718,42.1221 260.9648,42.0231 260.7298,41.9581 C260.4988,41.8951 260.1798,41.8621 259.7788,41.8621 C259.1038,41.8621 258.5348,42.0691 258.0648,42.4801 C257.5948,42.8911 257.2618,43.4601 257.0558,44.1881 C256.9658,44.5011 256.8868,44.9481 256.8268,45.5331 C256.7638,46.1151 256.7348,46.6991 256.7348,47.2811 C256.7348,47.7901 256.7508,48.3141 256.7828,48.8471 C256.8148,49.3831 256.8548,49.8661 256.9088,50.3021 C257.0198,51.2041 257.3258,51.9101 257.8278,52.4181 C258.3338,52.9311 258.9788,53.1831 259.7708,53.1831 C260.1728,53.1831 260.5058,53.1531 260.7638,53.0921 C261.0208,53.0311 261.3038,52.8851 261.6148,52.6441 L261.8428,53.0761 L264.1558,53.0761 L264.1558,38.6331 Z M261.0528,51.5091 C260.9428,51.5351 260.7788,51.5471 260.5638,51.5471 C260.3088,51.5471 260.1168,51.4781 259.9868,51.3311 C259.8558,51.1891 259.7648,50.9471 259.7188,50.6011 C259.6848,50.2531 259.6548,49.7731 259.6328,49.1601 C259.6088,48.5481 259.5968,47.9311 259.5968,47.3061 C259.5968,47.0861 259.6068,46.7051 259.6278,46.1601 C259.6458,45.6121 259.6768,45.1131 259.7188,44.6631 C259.7558,44.2791 259.8468,44.0051 259.9938,43.8471 C260.1438,43.6851 260.3708,43.6071 260.6778,43.6071 C260.7788,43.6071 260.8848,43.6211 260.9988,43.6491 C261.1118,43.6761 261.2308,43.7151 261.3588,43.7671 L261.3588,51.3311 C261.2678,51.4231 261.1658,51.4811 261.0528,51.5091 L261.0528,51.5091 Z" id="Fill-23" fill="#B4B4B5"></path>
                    <path d="M159.1621,23.4651 C159.1621,25.1641 158.6481,26.4801 157.6201,27.4271 C156.5921,28.3761 155.1781,28.8481 153.3921,28.8481 C151.4621,28.8481 150.0091,28.4061 149.0341,27.5191 C148.0581,26.6391 147.5721,25.3051 147.5721,23.5301 L151.6431,23.5301 C151.6431,24.2531 151.7781,24.7851 152.0411,25.1161 C152.3101,25.4451 152.7071,25.6111 153.2311,25.6111 C153.7321,25.6111 154.1081,25.4841 154.3661,25.2251 C154.6111,24.9691 154.7381,24.5831 154.7381,24.0691 C154.7381,23.5991 154.4751,23.0781 153.9431,22.5221 C153.4111,21.9591 152.5361,21.1701 151.3311,20.1431 C149.7931,18.8461 148.8191,17.7071 148.4061,16.7471 C147.9971,15.7921 147.7951,14.5991 147.7951,13.1871 C147.7951,11.7121 148.3111,10.5421 149.3541,9.6691 C150.3941,8.7941 151.7661,8.3591 153.4661,8.3591 C155.2841,8.3591 156.6721,8.8061 157.6321,9.7051 C158.5921,10.6111 159.0771,11.8891 159.0771,13.5401 L155.0081,13.5401 C155.0081,12.9361 154.8681,12.4521 154.6041,12.0711 C154.3291,11.6991 153.9611,11.5171 153.4841,11.5171 C153.0811,11.5171 152.7451,11.6321 152.4811,11.8831 C152.2181,12.1211 152.0841,12.4701 152.0841,12.9361 C152.0841,13.4791 152.2401,14.0131 152.5481,14.5261 C152.8601,15.0391 153.8171,15.9761 155.4181,17.3521 C156.8301,18.5641 157.8091,19.6111 158.3511,20.4901 C158.8931,21.3781 159.1621,22.3681 159.1621,23.4651" id="Fill-25" fill="#221E1F"></path>
                    <path d="M170.498,11.2102 L167.4,11.2102 L167.4,23.6792 C167.4,24.5972 167.585,25.2082 167.959,25.5252 C168.333,25.8372 169.045,25.9962 170.1,25.9962 L170.1,28.6762 L167.209,28.6762 C165.588,28.6762 164.353,28.2782 163.517,27.4882 C162.683,26.7002 162.266,25.5002 162.266,23.8672 L162.266,11.1682 L160.32,11.1682 L160.32,8.6592 L162.266,8.6592 L162.266,2.5232 L167.4,2.5232 L167.4,8.6592 L170.498,8.6592 L170.498,11.2102 Z" id="Fill-27" fill="#221E1F"></path>
                    <path d="M184.3032,10.8743 C183.2602,9.1913 181.5252,8.3583 179.1032,8.3583 C176.8102,8.3583 175.1132,9.1853 174.0182,10.8433 C172.9262,12.5073 172.3752,15.0833 172.3752,18.5873 C172.3752,21.9893 172.9392,24.5473 174.0682,26.2713 C175.1962,27.9913 176.8722,28.8483 179.1032,28.8483 C181.3862,28.8483 183.0842,28.0343 184.2012,26.4003 C185.3142,24.7663 185.8752,22.1613 185.8752,18.5873 C185.8752,15.1133 185.3512,12.5443 184.3032,10.8743 M180.3162,24.4673 C180.1212,25.3163 179.7232,25.7403 179.1272,25.7403 C178.4962,25.7403 178.0902,25.3353 177.9112,24.5473 C177.7312,23.7523 177.6432,21.7943 177.6432,18.6793 C177.6432,15.4923 177.7282,13.4973 177.8952,12.6843 C178.0642,11.8713 178.4722,11.4673 179.1272,11.4673 C179.7882,11.4673 180.2002,11.8573 180.3622,12.6363 C180.5252,13.4183 180.6102,15.4063 180.6102,18.6013 C180.6102,21.6653 180.5122,23.6223 180.3162,24.4673" id="Fill-29" fill="#221E1F"></path>
                    <path d="M202.063,28.676 L197.016,28.676 L197.016,13.363 C197.016,12.776 196.856,12.342 196.531,12.06 C196.207,11.78 195.77,11.644 195.211,11.644 C194.959,11.644 194.684,11.662 194.378,11.712 C194.072,11.754 193.816,11.827 193.61,11.907 L193.61,28.676 L188.566,28.676 L188.566,8.659 L192.681,8.659 L193.008,9.486 C193.717,9.074 194.385,8.781 195.002,8.615 C195.626,8.446 196.339,8.359 197.143,8.359 C198.695,8.359 199.903,8.769 200.765,9.608 C201.631,10.434 202.063,11.627 202.063,13.168 L202.063,28.676 Z" id="Fill-31" fill="#221E1F"></path>
                    <path d="M217.4297,16.6428 C217.4297,13.8828 216.9677,11.8098 216.0347,10.4268 C215.1087,9.0428 213.6557,8.3588 211.6827,8.3588 C209.3877,8.3588 207.6727,9.2148 206.5317,10.9348 C205.3897,12.6608 204.8187,15.2108 204.8187,18.5868 C204.8187,21.9898 205.3697,24.5468 206.4707,26.2718 C207.5687,27.9918 209.1777,28.8478 211.3037,28.8478 C213.2237,28.8478 214.6427,28.4368 215.5677,27.5988 C216.4847,26.7678 216.9437,25.4648 216.9437,23.7028 L213.3157,23.7028 C213.3157,24.4548 213.1937,24.9808 212.9567,25.2818 C212.7157,25.5868 212.3517,25.7408 211.8667,25.7408 C211.1357,25.7408 210.6577,25.3348 210.4287,24.5288 C210.2017,23.7208 210.0847,21.8488 210.0847,18.9068 L217.4297,18.9068 L217.4297,16.6428 Z M210.1037,16.0128 C210.1037,14.1218 210.2017,12.8978 210.3977,12.3238 C210.5937,11.7538 211.0127,11.4668 211.6557,11.4668 C212.3297,11.4668 212.7617,11.7908 212.9487,12.4338 C213.1357,13.0768 213.2277,14.2698 213.2277,16.0128 L210.1037,16.0128 Z" id="Fill-33" fill="#221E1F"></path>
                    <path d="M241.4873,14.0481 C241.4873,12.2621 240.9643,10.8621 239.9153,9.8641 C238.8683,8.8611 237.4343,8.3591 235.6263,8.3591 C234.5863,8.3591 233.5953,8.4391 232.6583,8.5991 C231.7243,8.7561 230.8423,9.0201 230.0283,9.3941 L230.0283,12.4221 C230.7323,12.0181 231.3933,11.7351 232.0233,11.5771 C232.6473,11.4251 233.3783,11.3381 234.2033,11.3381 C234.9603,11.3381 235.5373,11.5471 235.9383,11.9631 C236.3363,12.3731 236.5313,12.9281 236.5313,13.6151 L236.5313,15.0581 C236.3023,14.7521 235.9423,14.5071 235.4613,14.3051 C234.9823,14.1211 234.4333,14.0181 233.8163,14.0181 C231.7823,14.0181 230.2883,14.6171 229.3353,15.8111 C228.3803,17.0151 227.9053,18.8881 227.9053,21.4321 C227.9053,23.7441 228.4023,25.5621 229.3893,26.8771 C230.3803,28.1931 231.6653,28.8481 233.2433,28.8481 C234.0913,28.8481 234.8193,28.7691 235.4253,28.5971 C236.0233,28.4201 236.5013,28.1681 236.8533,27.8321 L237.3303,28.6761 L241.4873,28.6761 L241.4873,14.0481 Z M235.7923,25.8861 C235.4423,26.0161 235.0893,26.0811 234.7273,26.0811 C234.0663,26.0811 233.6023,25.8061 233.3413,25.2511 C233.0783,24.6941 232.9493,23.4571 232.9493,21.5371 C232.9493,19.8861 233.1063,18.7101 233.4243,18.0311 C233.7363,17.3401 234.2483,17.0031 234.9483,17.0031 C235.3693,17.0031 235.7053,17.0951 235.9763,17.2781 C236.2373,17.4501 236.4273,17.7191 236.5313,18.0681 L236.5313,25.4221 C236.3853,25.5921 236.1373,25.7451 235.7923,25.8861 L235.7923,25.8861 Z" id="Fill-35" fill="#221E1F"></path>
                    <path d="M258.1558,28.676 L253.1088,28.676 L253.1088,13.363 C253.1088,12.776 252.9488,12.342 252.6248,12.06 C252.3008,11.78 251.8598,11.644 251.2978,11.644 C251.0518,11.644 250.7778,11.662 250.4708,11.712 C250.1618,11.754 249.9058,11.827 249.6998,11.907 L249.6998,28.676 L244.6558,28.676 L244.6558,8.659 L248.7698,8.659 L249.0978,9.486 C249.8068,9.074 250.4738,8.781 251.0948,8.615 C251.7178,8.446 252.4318,8.359 253.2358,8.359 C254.7848,8.359 255.9928,8.769 256.8558,9.608 C257.7208,10.434 258.1558,11.627 258.1558,13.168 L258.1558,28.676 Z" id="Fill-37" fill="#221E1F"></path>
                    <path d="M274.5405,2.5237 L269.4935,2.5237 L269.4935,9.0997 C269.1575,8.8357 268.7775,8.6407 268.3565,8.5237 C267.9325,8.4157 267.3525,8.3587 266.6255,8.3587 C265.3975,8.3587 264.3575,8.7257 263.5085,9.4787 C262.6555,10.2197 262.0455,11.2467 261.6765,12.5617 C261.5085,13.1297 261.3635,13.9447 261.2535,15.0027 C261.1435,16.0557 261.0885,17.1147 261.0885,18.1667 C261.0885,19.0897 261.1195,20.0317 261.1735,21.0037 C261.2325,21.9707 261.3095,22.8457 261.4025,23.6347 C261.6085,25.2687 262.1665,26.5467 263.0805,27.4647 C263.9945,28.3887 265.1725,28.8477 266.6095,28.8477 C267.3375,28.8477 267.9365,28.7927 268.4105,28.6887 C268.8825,28.5857 269.3965,28.3147 269.9555,27.8997 L270.3805,28.6757 L274.5405,28.6757 L274.5405,2.5237 Z M268.9425,25.7947 C268.7445,25.8437 268.4485,25.8677 268.0625,25.8677 C267.5975,25.8677 267.2485,25.7407 267.0115,25.4767 C266.7745,25.2247 266.6125,24.7857 266.5295,24.1617 C266.4655,23.5257 266.4105,22.6557 266.3715,21.5537 C266.3315,20.4487 266.3115,19.3287 266.3115,18.1967 C266.3115,17.8107 266.3275,17.1147 266.3685,16.1277 C266.4035,15.1377 266.4605,14.2387 266.5295,13.4247 C266.5945,12.7277 266.7595,12.2387 267.0295,11.9447 C267.2945,11.6627 267.7075,11.5167 268.2655,11.5167 C268.4415,11.5167 268.6375,11.5407 268.8425,11.5887 C269.0485,11.6437 269.2645,11.7187 269.4935,11.8097 L269.4935,25.4767 C269.3285,25.6487 269.1425,25.7527 268.9425,25.7947 L268.9425,25.7947 Z" id="Fill-39" fill="#221E1F"></path>
                    <path d="M299.4038,15.2834 C299.3488,14.3484 299.2738,13.5844 299.1968,12.9894 C298.9678,11.4554 298.4738,10.2934 297.7058,9.5154 C296.9378,8.7444 295.8828,8.3584 294.5468,8.3584 C293.8058,8.3584 293.1138,8.4504 292.4788,8.6294 C291.8418,8.8124 291.3498,9.0434 290.9988,9.3324 L290.9988,2.5234 L285.9528,2.5234 L285.9528,28.6764 L290.1128,28.6764 L290.4778,28.0274 C290.9088,28.2914 291.3558,28.4864 291.8108,28.6204 C292.2678,28.7424 292.8878,28.8044 293.6748,28.8044 C295.3168,28.8044 296.6128,28.3454 297.5678,27.4104 C298.5228,26.4794 299.0858,25.2134 299.2388,23.6104 C299.3358,22.6744 299.3998,21.7874 299.4408,20.9564 C299.4728,20.1234 299.4958,19.1874 299.4958,18.1544 C299.4958,17.1874 299.4648,16.2314 299.4038,15.2834 M294.1728,21.4934 C294.1348,22.8034 294.0958,23.6534 294.0568,24.0464 C293.9898,24.7124 293.8248,25.1894 293.5538,25.4764 C293.2858,25.7634 292.9248,25.9114 292.4788,25.9114 C292.1348,25.9114 291.8418,25.8674 291.5848,25.7944 C291.3358,25.7214 291.1378,25.6174 290.9988,25.4954 L290.9988,11.8574 C291.2428,11.7844 291.4718,11.7354 291.6828,11.6994 C291.8938,11.6624 292.1008,11.6434 292.3028,11.6434 C292.8538,11.6434 293.2698,11.7544 293.5458,11.9744 C293.8208,12.1944 293.9898,12.7144 294.0568,13.5354 C294.1188,14.3804 294.1648,15.2054 294.1918,16.0124 C294.2158,16.8204 294.2268,17.5544 294.2268,18.2034 C294.2268,19.0904 294.2108,20.1844 294.1728,21.4934" id="Fill-41" fill="#221E1F"></path>
                    <path d="M314.5054,16.6428 C314.5054,13.8828 314.0364,11.8098 313.1034,10.4268 C312.1814,9.0428 310.7244,8.3588 308.7514,8.3588 C306.4574,8.3588 304.7444,9.2148 303.6044,10.9348 C302.4584,12.6608 301.8914,15.2108 301.8914,18.5868 C301.8914,21.9898 302.4424,24.5468 303.5424,26.2718 C304.6414,27.9918 306.2494,28.8478 308.3724,28.8478 C310.2964,28.8478 311.7154,28.4368 312.6394,27.5988 C313.5574,26.7678 314.0164,25.4648 314.0164,23.7028 L310.3884,23.7028 C310.3884,24.4548 310.2654,24.9808 310.0284,25.2818 C309.7874,25.5868 309.4284,25.7408 308.9384,25.7408 C308.2044,25.7408 307.7274,25.3348 307.5004,24.5288 C307.2714,23.7208 307.1574,21.8488 307.1574,18.9068 L314.5054,18.9068 L314.5054,16.6428 Z M307.1724,16.0128 C307.1724,14.1218 307.2714,12.8978 307.4664,12.3238 C307.6654,11.7538 308.0864,11.4668 308.7294,11.4668 C309.4014,11.4668 309.8304,11.7908 310.0174,12.4338 C310.2044,13.0768 310.2994,14.2698 310.2994,16.0128 L307.1724,16.0128 Z" id="Fill-43" fill="#221E1F"></path>
                    <path d="M327.1841,12.9358 C326.7801,12.7898 326.3801,12.6718 325.9791,12.5918 C325.5791,12.5068 325.1571,12.4638 324.7131,12.4638 C324.2291,12.4638 323.7651,12.4958 323.3111,12.5558 C322.8591,12.6178 322.5311,12.7338 322.3291,12.8978 L322.3291,28.6758 L317.2861,28.6758 L317.2861,8.6598 L321.4031,8.6598 L321.7271,9.5208 C322.1951,9.1188 322.7421,8.8248 323.3681,8.6338 C323.9881,8.4508 324.6761,8.3588 325.4281,8.3588 C325.7491,8.3588 326.0591,8.3968 326.3551,8.4688 C326.6521,8.5378 326.9311,8.6338 327.1841,8.7558 L327.1841,12.9358 Z" id="Fill-45" fill="#221E1F"></path>
                    <path d="M337.4155,24.926 L337.4155,11.81 C337.2695,11.724 337.0665,11.651 336.8115,11.596 C336.5545,11.54 336.3265,11.517 336.1275,11.517 C335.5745,11.517 335.1635,11.644 334.9035,11.907 C334.6445,12.177 334.4785,12.672 334.4055,13.425 C334.3335,14.183 334.2765,15.009 334.2405,15.891 C334.2035,16.778 334.1855,17.561 334.1855,18.239 C334.1855,19.317 334.2075,20.331 334.2465,21.28 C334.2905,22.235 334.3385,23.03 334.4055,23.665 C334.4675,24.277 334.6205,24.719 334.8685,24.988 C335.1125,25.256 335.4645,25.392 335.9235,25.392 C336.2685,25.392 336.5545,25.354 336.7725,25.281 C336.9905,25.208 337.2015,25.091 337.4155,24.926 L337.4155,24.926 Z M342.4575,28.065 C342.4575,30.016 341.8165,31.527 340.5355,32.604 C339.2545,33.674 337.5195,34.213 335.3305,34.213 C334.4175,34.213 333.4965,34.126 332.5665,33.968 C331.6345,33.804 330.7875,33.552 330.0245,33.215 L330.6445,30.45 C331.1595,30.664 331.8175,30.849 332.6235,31.001 C333.4275,31.155 334.1575,31.227 334.8255,31.227 C335.8365,31.227 336.5865,30.951 337.0665,30.408 C337.5485,29.858 337.7855,29.063 337.7855,28.004 C337.7855,27.869 337.7825,27.722 337.7705,27.557 C337.7585,27.397 337.7465,27.213 337.7255,27.018 C337.5145,27.38 337.0915,27.667 336.4625,27.874 C335.8245,28.088 335.0875,28.198 334.2445,28.198 C332.8215,28.198 331.7075,27.801 330.8995,27.006 C330.0935,26.198 329.5495,24.914 329.2755,23.152 C329.1595,22.442 329.0835,21.691 329.0345,20.876 C328.9885,20.07 328.9615,19.175 328.9615,18.197 C328.9615,17.156 329.0155,16.098 329.1265,15.022 C329.2365,13.951 329.3815,13.13 329.5495,12.562 C329.9165,11.246 330.5275,10.22 331.3775,9.472 C332.2265,8.726 333.2625,8.359 334.4855,8.359 C335.0755,8.359 335.6025,8.415 336.0615,8.524 C336.5195,8.641 336.9725,8.836 337.4155,9.1 L337.4155,8.659 L342.4575,8.659 L342.4575,28.065 Z" id="Fill-47" fill="#221E1F"></path>
                    <path d="M366.2671,14.3665 L361.8011,14.3665 C361.8011,13.1495 361.7081,12.3605 361.5261,12.0065 C361.3421,11.6435 361.0371,11.4675 360.6081,11.4675 C359.8801,11.4675 359.4271,11.9805 359.2431,13.0085 C359.0601,14.0365 358.9681,15.9025 358.9681,18.5945 C358.9681,21.6955 359.0751,23.6605 359.2861,24.4915 C359.4981,25.3165 359.9651,25.7405 360.6811,25.7405 C361.1271,25.7405 361.4571,25.6105 361.6711,25.3475 C361.8931,25.0865 362.0371,24.5285 362.1101,23.6655 L365.8721,23.6655 C365.8721,25.4335 365.4021,26.7375 364.4551,27.5805 C363.5101,28.4255 362.0951,28.8475 360.2101,28.8475 C358.0781,28.8475 356.4591,27.9915 355.3581,26.2715 C354.2571,24.5475 353.7041,21.9895 353.7041,18.5875 C353.7041,15.2115 354.2761,12.6605 355.4191,10.9345 C356.5621,9.2155 358.2841,8.3585 360.5841,8.3585 C362.4131,8.3585 363.8231,8.8545 364.7981,9.8455 C365.7811,10.8435 366.2671,12.3465 366.2671,14.3665" id="Fill-49" fill="#221E1F"></path>
                    <path d="M379.9497,10.8743 C378.8987,9.1913 377.1667,8.3583 374.7497,8.3583 C372.4517,8.3583 370.7577,9.1853 369.6647,10.8433 C368.5667,12.5073 368.0217,15.0833 368.0217,18.5873 C368.0217,21.9893 368.5867,24.5473 369.7077,26.2713 C370.8367,27.9913 372.5127,28.8483 374.7497,28.8483 C377.0297,28.8483 378.7277,28.0343 379.8447,26.4003 C380.9587,24.7663 381.5217,22.1613 381.5217,18.5873 C381.5217,15.1133 380.9917,12.5443 379.9497,10.8743 M375.9597,24.4673 C375.7637,25.3163 375.3667,25.7403 374.7697,25.7403 C374.1377,25.7403 373.7337,25.3353 373.5567,24.5473 C373.3747,23.7523 373.2867,21.7943 373.2867,18.6793 C373.2867,15.4923 373.3737,13.4973 373.5417,12.6843 C373.7097,11.8713 374.1187,11.4673 374.7697,11.4673 C375.4307,11.4673 375.8447,11.8573 376.0057,12.6363 C376.1687,13.4183 376.2537,15.4063 376.2537,18.6013 C376.2537,21.6653 376.1527,23.6223 375.9597,24.4673" id="Fill-51" fill="#221E1F"></path>
                    <path d="M405.8052,28.676 L400.7582,28.676 L400.7582,13.363 C400.7582,12.881 400.6122,12.47 400.3182,12.14 C400.0242,11.81 399.6212,11.644 399.1062,11.644 C398.7772,11.644 398.4832,11.662 398.2312,11.705 C397.9782,11.742 397.6572,11.834 397.2622,11.963 C397.3352,12.158 397.3932,12.404 397.4462,12.721 C397.5002,13.039 397.5282,13.333 397.5282,13.608 L397.5282,28.676 L392.4872,28.676 L392.4872,13.363 C392.4872,12.751 392.3422,12.312 392.0502,12.048 C391.7652,11.78 391.3062,11.644 390.6832,11.644 C390.4082,11.644 390.1512,11.662 389.9212,11.699 C389.6922,11.736 389.4712,11.796 389.2562,11.889 L389.2562,28.676 L384.2092,28.676 L384.2092,8.659 L388.3242,8.659 L388.6822,9.503 C389.2022,9.142 389.8022,8.861 390.4872,8.659 C391.1682,8.457 391.9402,8.359 392.8002,8.359 C393.7942,8.359 394.5672,8.488 395.1332,8.763 C395.6922,9.027 396.1812,9.46 396.6102,10.067 C397.0332,9.577 397.6192,9.173 398.3712,8.849 C399.1182,8.524 399.8592,8.359 400.5812,8.359 C402.1992,8.359 403.4752,8.756 404.4052,9.552 C405.3372,10.359 405.8052,11.534 405.8052,13.081 L405.8052,28.676 Z" id="Fill-53" fill="#221E1F"></path>
                    <path d="M417.2603,18.2034 C417.2603,17.1334 417.2483,16.2084 417.2173,15.4434 C417.1843,14.6794 417.1263,14.0134 417.0403,13.4434 C416.9463,12.8434 416.7713,12.3964 416.5093,12.0914 C416.2493,11.7914 415.8603,11.6434 415.3403,11.6434 C415.2363,11.6434 415.2293,11.6274 415.3313,11.6074 C415.4313,11.5774 414.9993,11.6624 414.0313,11.8574 L414.0313,25.5074 C414.2113,25.6534 414.4133,25.7524 414.6433,25.7944 C414.8633,25.8444 415.1643,25.8674 415.5473,25.8674 C415.9823,25.8674 416.3423,25.7094 416.6433,25.4034 C416.9423,25.0914 417.0923,24.6504 417.0923,24.0884 C417.1203,23.6904 417.1563,22.8394 417.2023,21.5184 C417.2423,20.1964 417.2603,19.0964 417.2603,18.2034 M422.5283,18.1594 C422.5283,19.1934 422.5093,20.1234 422.4743,20.9564 C422.4363,21.7944 422.3683,22.6744 422.2773,23.6174 C422.1183,25.1584 421.5723,26.3884 420.6353,27.3054 C419.7023,28.2184 418.4873,28.6764 416.9913,28.6764 C416.2203,28.6764 415.5773,28.6394 415.0723,28.5544 C414.5743,28.4744 414.2273,28.3514 414.0313,28.1984 L414.0313,33.9994 L408.9893,33.9994 L408.9893,8.6594 L413.1463,8.6594 L413.4313,9.5524 C414.0123,9.0934 414.6433,8.7814 415.3283,8.6154 C416.0003,8.4454 416.7533,8.3584 417.5843,8.3584 C418.9303,8.3584 419.9963,8.7634 420.7813,9.5704 C421.5613,10.3734 422.0583,11.5164 422.2603,12.9894 C422.3413,13.5404 422.4123,14.2884 422.4553,15.2364 C422.5063,16.1844 422.5283,17.1564 422.5283,18.1594" id="Fill-55" fill="#221E1F"></path>
                    <path d="M438.4253,14.0481 C438.4253,12.2621 437.8953,10.8621 436.8503,9.8641 C435.8033,8.8611 434.3683,8.3591 432.5563,8.3591 C431.5183,8.3591 430.5273,8.4391 429.5903,8.5991 C428.6553,8.7561 427.7803,9.0201 426.9593,9.3941 L426.9593,12.4221 C427.6633,12.0181 428.3303,11.7351 428.9583,11.5771 C429.5813,11.4251 430.3133,11.3381 431.1423,11.3381 C431.8953,11.3381 432.4723,11.5471 432.8663,11.9631 C433.2713,12.3731 433.4703,12.9281 433.4703,13.6151 L433.4703,15.0581 C433.2343,14.7521 432.8773,14.5071 432.3923,14.3051 C431.9133,14.1211 431.3643,14.0181 430.7523,14.0181 C428.7173,14.0181 427.2233,14.6171 426.2703,15.8111 C425.3153,17.0151 424.8373,18.8881 424.8373,21.4321 C424.8373,23.7441 425.3333,25.5621 426.3243,26.8771 C427.3153,28.1931 428.6003,28.8481 430.1783,28.8481 C431.0233,28.8481 431.7463,28.7691 432.3543,28.5971 C432.9583,28.4201 433.4363,28.1681 433.7843,27.8321 L434.2623,28.6761 L438.4253,28.6761 L438.4253,14.0481 Z M432.7213,25.8861 C432.3803,26.0161 432.0223,26.0811 431.6543,26.0811 C430.9953,26.0811 430.5363,25.8061 430.2773,25.2511 C430.0133,24.6941 429.8843,23.4571 429.8843,21.5371 C429.8843,19.8861 430.0403,18.7101 430.3553,18.0311 C430.6673,17.3401 431.1793,17.0031 431.8843,17.0031 C432.2973,17.0031 432.6373,17.0951 432.9073,17.2781 C433.1763,17.4501 433.3633,17.7191 433.4703,18.0681 L433.4703,25.4221 C433.3173,25.5921 433.0693,25.7451 432.7213,25.8861 L432.7213,25.8861 Z" id="Fill-57" fill="#221E1F"></path>
                    <path d="M455.0835,28.676 L450.0405,28.676 L450.0405,13.363 C450.0405,12.776 449.8805,12.342 449.5595,12.06 C449.2305,11.78 448.7915,11.644 448.2355,11.644 C447.9835,11.644 447.7085,11.662 447.4025,11.712 C447.0975,11.754 446.8405,11.827 446.6315,11.907 L446.6315,28.676 L441.5915,28.676 L441.5915,8.659 L445.7055,8.659 L446.0325,9.486 C446.7415,9.074 447.4095,8.781 448.0265,8.615 C448.6495,8.446 449.3665,8.359 450.1675,8.359 C451.7155,8.359 452.9275,8.769 453.7885,9.608 C454.6525,10.434 455.0835,11.627 455.0835,13.168 L455.0835,28.676 Z" id="Fill-59" fill="#221E1F"></path>
                    <g id="Group-63" transform="translate(458.000000, 8.000000)">
                        <mask id="mask-4" fill="white">
                            <use xlink:href="#path-3"></use>
                        </mask>
                        <g id="Clip-62"></g>
                        <path d="M13.5591,20.0647 C13.5591,22.0777 12.9281,23.6007 11.6561,24.6467 C10.3891,25.6867 8.5421,26.2127 6.1201,26.2127 C5.2081,26.2127 4.2881,26.1267 3.3611,25.9677 C2.4241,25.8037 1.5801,25.5517 0.8191,25.2147 L1.3511,22.8787 C2.1581,23.1167 2.8921,23.2817 3.5621,23.3797 C4.2291,23.4787 4.8921,23.5267 5.5501,23.5267 C6.6391,23.5267 7.4451,23.2467 7.9661,22.6767 C8.4861,22.1077 8.7471,21.2517 8.7471,20.0947 C8.7471,19.9547 8.7291,19.7587 8.7011,19.5067 C8.6641,19.2627 8.6461,19.0977 8.6461,19.0127 L8.0491,19.7217 L4.7011,19.7217 L0.0661,14.3637 L0.0661,0.6597 L5.1101,0.6597 L5.1101,14.6927 L7.3691,17.3737 L8.5171,15.8977 L8.5171,0.6597 L13.5591,0.6597 L13.5591,20.0647 Z" id="Fill-61" fill="#221E1F" mask="url(#mask-4)"></path>
                    </g>
                    <path d="M30.1992,17.8606 L17.6902,17.8606 L17.6902,14.0916 C17.6902,12.3346 17.5272,11.2136 17.2062,10.7306 C16.8832,10.2496 16.3452,10.0086 15.5942,10.0086 C14.7782,10.0086 14.1592,10.3346 13.7402,10.9806 C13.3202,11.6296 13.1122,12.6106 13.1122,13.9266 C13.1122,15.6196 13.3472,16.8936 13.8212,17.7506 C14.2712,18.6076 15.5412,19.6416 17.6372,20.8556 C23.6382,24.3526 27.4182,27.2206 28.9792,29.4596 C30.5372,31.6966 31.3182,35.3036 31.3182,40.2796 C31.3182,43.8996 30.8852,46.5656 30.0202,48.2816 C29.1552,49.9956 27.4832,51.4316 25.0062,52.5916 C22.5262,53.7526 19.6412,54.3336 16.3522,54.3336 C12.7412,54.3336 9.6582,53.6626 7.1062,52.3246 C4.5532,50.9866 2.8822,49.2786 2.0922,47.2056 C1.3012,45.1326 0.9062,42.1906 0.9062,38.3816 L0.9062,35.0516 L13.4172,35.0516 L13.4172,41.2726 C13.4172,43.1886 13.5932,44.4216 13.9472,44.9656 C14.3012,45.5126 14.9282,45.7876 15.8312,45.7876 C16.7322,45.7876 17.4032,45.4406 17.8442,44.7486 C18.2822,44.0576 18.5032,43.0296 18.5032,41.6656 C18.5032,38.6646 18.0902,36.7026 17.2622,35.7816 C16.4152,34.8606 14.3142,33.3266 10.9532,31.1846 C7.5932,29.0196 5.3672,27.4476 4.2792,26.4646 C3.1882,25.4806 2.2872,24.1246 1.5722,22.3866 C0.8572,20.6506 0.5002,18.4336 0.5002,15.7356 C0.5002,11.8456 1.0062,9.0016 2.0202,7.2036 C3.0342,5.4046 4.6752,4.0006 6.9392,2.9846 C9.2022,1.9696 11.9372,1.4626 15.1412,1.4626 C18.6442,1.4626 21.6292,2.0156 24.0952,3.1196 C26.5612,4.2266 28.1972,5.6196 28.9972,7.2996 C29.7992,8.9786 30.1992,11.8316 30.1992,15.8566 L30.1992,17.8606 Z" id="Fill-64" fill="#5F0E16"></path>
                    <path d="M1.4063,35.552 L1.4063,38.381 C1.4063,42.114 1.7943,45.024 2.5593,47.027 C3.3013,48.975 4.9093,50.609 7.3383,51.882 C9.8083,53.177 12.8413,53.833 16.3523,53.833 C19.5513,53.833 22.3913,53.263 24.7943,52.139 C27.1563,51.032 28.7653,49.659 29.5733,48.056 C30.3993,46.418 30.8183,43.802 30.8183,40.28 C30.8183,35.432 30.0613,31.888 28.5693,29.745 C27.0563,27.576 23.2943,24.731 17.3853,21.287 C15.1893,20.016 13.8773,18.934 13.3783,17.983 C12.8643,17.054 12.6123,15.725 12.6123,13.927 C12.6123,12.497 12.8443,11.445 13.3203,10.709 C13.8293,9.924 14.6153,9.509 15.5943,9.509 C16.5193,9.509 17.2003,9.826 17.6213,10.451 C18.0103,11.035 18.1903,12.192 18.1903,14.092 L18.1903,17.361 L29.6993,17.361 L29.6993,15.857 C29.6993,11.924 29.3113,9.117 28.5463,7.516 C27.8033,5.954 26.2373,4.629 23.8903,3.575 C21.4983,2.505 18.5543,1.962 15.1413,1.962 C12.0233,1.962 9.3323,2.459 7.1433,3.441 C4.9873,4.408 3.4103,5.757 2.4563,7.448 C1.4893,9.161 1.0003,11.949 1.0003,15.736 C1.0003,18.357 1.3483,20.531 2.0343,22.197 C2.7173,23.854 3.5853,25.165 4.6143,26.094 C5.6733,27.05 7.8973,28.621 11.2243,30.765 C14.6433,32.944 16.7393,34.474 17.6313,35.443 C18.5553,36.473 19.0033,38.506 19.0033,41.665 C19.0033,43.139 18.7613,44.236 18.2653,45.016 C17.7293,45.86 16.9103,46.287 15.8313,46.287 C14.7533,46.287 13.9773,45.934 13.5273,45.238 C13.1113,44.597 12.9173,43.337 12.9173,41.273 L12.9173,35.552 L1.4063,35.552 Z M16.3523,54.833 C12.6773,54.833 9.4893,54.138 6.8743,52.767 C4.2223,51.377 2.4563,49.566 1.6243,47.383 C0.8163,45.266 0.4063,42.237 0.4063,38.381 L0.4063,34.552 L13.9173,34.552 L13.9173,41.273 C13.9173,43.648 14.1983,44.436 14.3663,44.694 C14.6253,45.093 15.1043,45.287 15.8313,45.287 C16.5663,45.287 17.0713,45.031 17.4223,44.48 C17.8073,43.873 18.0033,42.926 18.0033,41.665 C18.0033,38.102 17.3983,36.681 16.8903,36.115 C16.0743,35.229 13.9853,33.71 10.6853,31.607 C7.2623,29.402 5.0583,27.842 3.9443,26.836 C2.8033,25.807 1.8493,24.373 1.1103,22.577 C0.3733,20.789 0.0003,18.488 0.0003,15.736 C0.0003,11.72 0.5183,8.849 1.5853,6.957 C2.6463,5.075 4.3793,3.585 6.7343,2.529 C9.0523,1.489 11.8813,0.962 15.1413,0.962 C18.6963,0.962 21.7773,1.534 24.2993,2.663 C26.8683,3.817 28.6013,5.304 29.4493,7.085 C30.2903,8.846 30.6993,11.716 30.6993,15.857 L30.6993,18.361 L17.1903,18.361 L17.1903,14.092 C17.1903,11.931 16.9393,11.232 16.7903,11.008 C16.5653,10.673 16.1733,10.509 15.5943,10.509 C14.9443,10.509 14.4883,10.745 14.1593,11.253 C13.7963,11.813 13.6123,12.713 13.6123,13.927 C13.6123,15.529 13.8293,16.733 14.2583,17.508 C14.5413,18.046 15.3953,18.979 17.8873,20.423 C24.0093,23.99 27.7713,26.852 29.3893,29.173 C31.0013,31.487 31.8183,35.224 31.8183,40.28 C31.8183,44.011 31.3763,46.702 30.4663,48.506 C29.5543,50.315 27.7883,51.841 25.2183,53.045 C22.6813,54.232 19.6983,54.833 16.3523,54.833 L16.3523,54.833 Z" id="Fill-66" fill="#231F20"></path>
                    <path d="M102.5708,35.5002 C102.6168,38.7052 102.7338,41.0632 102.9188,42.5732 C103.1668,44.5922 103.9398,46.4602 105.2438,48.1762 C106.5468,49.8922 108.2688,51.1782 110.4098,52.0362 C112.5478,52.8922 114.9618,53.3222 117.6508,53.3222 C120.3858,53.3222 122.7878,52.8882 124.8678,52.0422 C116.4158,47.9682 108.8588,42.3282 102.5708,35.5002" id="Fill-68" fill="#5F0E16"></path>
                    <path d="M119.7358,38.3625 C119.7358,41.2415 119.6088,43.0625 119.3558,43.8275 C119.1048,44.5915 118.5258,44.9745 117.6188,44.9745 C116.7338,44.9745 116.1708,44.6425 115.9278,43.9785 C115.6878,43.3135 115.5658,41.5645 115.5658,38.7255 L115.5658,15.9025 C115.5658,13.3865 115.7508,11.8725 116.1198,11.3585 C116.4868,10.8445 117.0178,10.5895 117.7148,10.5895 C118.5348,10.5895 119.0768,10.9065 119.3398,11.5395 C119.6038,12.1745 119.7358,13.6305 119.7358,15.9025 L119.7358,38.3625 Z M132.3838,12.9895 C132.1358,10.9715 131.3598,9.1045 130.0578,7.3895 C128.7538,5.6745 127.0318,4.3845 124.8928,3.5275 C122.7518,2.6705 120.3388,2.2395 117.6508,2.2395 C114.8188,2.2395 112.3368,2.6965 110.2068,3.6025 C108.0778,4.5115 106.3858,5.8125 105.1358,7.5085 C103.8848,9.2055 103.1418,11.0775 102.9028,13.1275 C102.6638,15.1765 102.5468,18.6625 102.5468,23.5885 L102.5468,31.9755 C102.5468,32.6815 102.5498,33.3495 102.5548,33.9965 C109.0818,41.3045 117.0598,47.2895 126.0358,51.4915 C127.7188,50.6225 129.1088,49.4875 130.1648,48.0545 C131.4168,46.3585 132.1598,44.4885 132.3968,42.4385 C132.6358,40.3885 132.7558,36.9015 132.7558,31.9755 L132.7558,23.5885 C132.7558,18.5415 132.6318,15.0095 132.3838,12.9895 L132.3838,12.9895 Z" id="Fill-70" fill="#5F0E16"></path>
                    <path d="M124.2393,51.7356 C122.3213,52.4436 120.1193,52.8226 117.6513,52.8226 C115.0433,52.8226 112.6693,52.4016 110.5953,51.5726 C108.5493,50.7526 106.8833,49.5066 105.6423,47.8736 C104.4003,46.2396 103.6513,44.4356 103.4143,42.5126 C103.2433,41.1176 103.1333,38.9396 103.0813,36.0476 C102.7393,35.6836 102.3993,35.3216 102.0653,34.9516 C102.1073,38.4446 102.2253,41.0326 102.4223,42.6336 C102.6803,44.7366 103.4963,46.7026 104.8453,48.4786 C106.1973,50.2576 108.0073,51.6116 110.2243,52.5006 C112.4163,53.3786 114.9153,53.8226 117.6513,53.8226 C120.5363,53.8226 123.1073,53.3506 125.2913,52.4206 C125.3563,52.3926 125.4123,52.3556 125.4763,52.3276 C125.0623,52.1326 124.6493,51.9376 124.2393,51.7356" id="Fill-72" fill="#231F20"></path>
                    <path d="M132.8799,12.929 C132.6229,10.832 131.8069,8.867 130.4559,7.087 C129.0999,5.304 127.2909,3.95 125.0789,3.064 C122.8849,2.185 120.3859,1.74 117.6509,1.74 C114.7699,1.74 112.1999,2.211 110.0099,3.143 C107.8039,4.085 106.0289,5.454 104.7339,7.212 C103.4379,8.97 102.6549,10.94 102.4059,13.07 C102.1649,15.141 102.0469,18.581 102.0469,23.588 L102.0469,31.976 C102.0469,32.479 102.0489,32.957 102.0519,33.432 C102.3839,33.812 102.7199,34.191 103.0609,34.565 C103.0519,33.745 103.0469,32.894 103.0469,31.976 L103.0469,23.588 C103.0469,18.69 103.1659,15.19 103.3999,13.185 C103.6279,11.231 104.3469,9.421 105.5389,7.806 C106.7269,6.193 108.3629,4.934 110.4019,4.063 C112.4659,3.185 114.9049,2.74 117.6509,2.74 C120.2579,2.74 122.6319,3.16 124.7069,3.991 C126.7489,4.81 128.4149,6.055 129.6589,7.693 C130.9019,9.329 131.6519,11.132 131.8879,13.05 C132.1319,15.041 132.2559,18.587 132.2559,23.588 L132.2559,31.976 C132.2559,36.859 132.1359,40.36 131.9009,42.381 C131.6739,44.333 130.9549,46.142 129.7619,47.758 C128.6849,49.22 127.2259,50.372 125.4559,51.223 C125.8399,51.407 126.2289,51.581 126.6169,51.759 C128.2099,50.877 129.5419,49.742 130.5669,48.352 C131.8649,46.594 132.6479,44.623 132.8939,42.496 C133.1339,40.438 133.2559,36.898 133.2559,31.976 L133.2559,23.588 C133.2559,18.546 133.1299,14.96 132.8799,12.929" id="Fill-74" fill="#231F20"></path>
                    <path d="M116.0659,15.9026 C116.0659,12.6416 116.3869,11.8426 116.5259,11.6496 C116.7999,11.2666 117.1769,11.0896 117.7139,11.0896 C118.5089,11.0896 118.7539,11.4326 118.8789,11.7306 C119.0419,12.1236 119.2359,13.1656 119.2359,15.9026 L119.2359,38.3626 C119.2359,41.8636 119.0429,43.1806 118.8809,43.6716 C118.7579,44.0456 118.5039,44.4746 117.6189,44.4746 C116.7529,44.4746 116.5109,44.1186 116.3989,43.8086 C116.2469,43.3896 116.0659,42.1676 116.0659,38.7256 L116.0659,15.9026 Z M117.6189,45.4746 C119.0419,45.4746 119.6079,44.6646 119.8309,43.9846 C120.1039,43.1606 120.2359,41.3216 120.2359,38.3626 L120.2359,15.9026 C120.2359,13.5406 120.0939,12.0496 119.8019,11.3466 C119.5629,10.7726 119.0059,10.0896 117.7139,10.0896 C116.8509,10.0896 116.1779,10.4186 115.7129,11.0666 C115.4119,11.4866 115.0659,12.4156 115.0659,15.9026 L115.0659,38.7256 C115.0659,41.6456 115.1939,43.4206 115.4589,44.1506 C115.6789,44.7546 116.2329,45.4746 117.6189,45.4746 L117.6189,45.4746 Z" id="Fill-76" fill="#231F20"></path>
                    <path d="M92.2026,3.928 C90.4696,4.677 88.7586,5.469 87.0956,6.343 C89.0326,12.858 91.8666,18.988 95.4426,24.6 L99.2516,24.6 L99.2516,19.948 C99.2516,15.375 98.8576,12.005 98.0716,9.84 C97.2826,7.676 95.6366,5.865 93.1306,4.415 C92.8316,4.242 92.5216,4.08 92.2026,3.928" id="Fill-78" fill="#5F0E16"></path>
                    <path d="M86.8076,5.3469 C88.1446,4.6489 89.5136,4.0039 90.8966,3.3859 C89.4466,2.8569 87.8266,2.5129 86.0366,2.3519 C86.2756,3.3569 86.5286,4.3579 86.8076,5.3469" id="Fill-80" fill="#5F0E16"></path>
                    <path d="M86.2334,38.7317 C86.2334,41.4307 86.0784,43.1487 85.7704,43.8777 C85.4614,44.6097 84.8064,44.9747 83.8074,44.9747 C82.7654,44.9747 82.0944,44.6127 81.7974,43.8887 C81.4984,43.1627 81.3514,41.6147 81.3514,39.2377 L81.3514,16.5357 C81.3514,14.0607 81.4984,12.4527 81.7974,11.7067 C82.0944,10.9607 82.7964,10.5887 83.9034,10.5887 C84.8814,10.5887 85.5144,10.8947 85.8024,11.5057 C86.0874,12.1187 86.2334,13.6567 86.2334,16.1207 L86.2334,24.5997 L94.2564,24.5997 C90.8244,19.1127 88.0894,13.1457 86.1894,6.8197 C79.5414,10.4377 73.5244,15.0697 68.3324,20.4967 C68.3324,20.5187 68.3314,20.5387 68.3314,20.5607 L68.3314,34.8817 C68.3314,39.6877 68.7354,43.2877 69.5434,45.6777 C70.3494,48.0707 71.9974,49.9427 74.4834,51.2947 C76.9684,52.6447 80.1304,53.3227 83.9624,53.3227 C87.6504,53.3227 90.7524,52.5197 93.2704,50.9187 C95.7884,49.3137 97.4134,47.4447 98.1484,45.3127 C98.8834,43.1817 99.2514,39.5667 99.2514,34.4697 L99.2514,32.5507 L86.2334,32.5507 L86.2334,38.7317 Z" id="Fill-82" fill="#5F0E16"></path>
                    <path d="M85.9072,5.8313 C85.5732,4.6573 85.2742,3.4693 84.9952,2.2723 C84.5372,2.2503 84.0682,2.2393 83.5892,2.2393 C80.7512,2.2393 78.2392,2.7103 76.0532,3.6483 C73.8672,4.5873 72.1582,5.8763 70.9252,7.5113 C69.6922,9.1453 68.9512,10.8453 68.7032,12.6113 C68.4922,14.1193 68.3712,16.2763 68.3402,19.0713 C73.4902,13.8363 79.3972,9.3503 85.9072,5.8313" id="Fill-84" fill="#5F0E16"></path>
                    <path d="M92.7949,3.675 C92.3859,3.848 91.9759,4.019 91.5709,4.198 C92.0249,4.398 92.4669,4.609 92.8799,4.848 C95.2679,6.23 96.8569,7.967 97.6019,10.011 C98.3649,12.112 98.7519,15.454 98.7519,19.947 L98.7519,24.1 L95.1259,24.1 C95.3369,24.438 95.5609,24.766 95.7779,25.1 L99.7519,25.1 L99.7519,19.947 C99.7519,15.338 99.3439,11.879 98.5409,9.669 C97.7139,7.399 95.9779,5.485 93.3809,3.983 C93.1919,3.873 92.9919,3.777 92.7949,3.675" id="Fill-86" fill="#231F20"></path>
                    <path d="M85.9209,1.843 C85.9989,2.183 86.0699,2.525 86.1529,2.863 C87.6269,3.006 88.9799,3.283 90.2129,3.684 C90.6529,3.482 91.1019,3.295 91.5459,3.102 C89.8949,2.44 88.0129,2.02 85.9209,1.843" id="Fill-88" fill="#231F20"></path>
                    <path d="M99.6045,32.051 L85.7335,32.051 L85.7335,38.732 C85.7335,41.996 85.5025,43.226 85.3095,43.684 C85.1665,44.024 84.8545,44.475 83.8075,44.475 C82.7065,44.475 82.3965,44.032 82.2595,43.698 C82.0735,43.245 81.8515,42.104 81.8515,39.238 L81.8515,16.535 C81.8515,13.545 82.0745,12.36 82.2615,11.892 C82.3995,11.547 82.7185,11.089 83.9035,11.089 C85.0535,11.089 85.2765,11.564 85.3495,11.717 C85.4925,12.026 85.7335,13.008 85.7335,16.12 L85.7335,25.1 L94.5745,25.1 C94.3645,24.77 94.1645,24.434 93.9595,24.1 L86.7335,24.1 L86.7335,16.12 C86.7335,12.716 86.4605,11.736 86.2545,11.292 C85.8775,10.494 85.0865,10.089 83.9035,10.089 C82.2505,10.089 81.5935,10.867 81.3335,11.521 C81.0085,12.33 80.8515,13.971 80.8515,16.535 L80.8515,39.238 C80.8515,41.703 81.0095,43.287 81.3345,44.079 C81.5965,44.716 82.2375,45.475 83.8075,45.475 C85.3215,45.475 85.9605,44.712 86.2305,44.072 C86.5685,43.273 86.7335,41.526 86.7335,38.732 L86.7335,33.051 L98.7515,33.051 L98.7515,34.47 C98.7515,39.487 98.3895,43.08 97.6755,45.15 C96.9805,47.164 95.4085,48.963 93.0015,50.496 C90.5755,52.04 87.5345,52.822 83.9625,52.822 C80.2335,52.822 77.1255,52.16 74.7225,50.855 C72.3615,49.572 70.7775,47.776 70.0165,45.518 C69.2305,43.189 68.8315,39.611 68.8315,34.882 L68.8315,20.561 C68.8315,20.365 68.8335,20.183 68.8335,19.993 C68.4995,20.337 68.1595,20.675 67.8315,21.025 L67.8315,34.882 C67.8315,39.719 68.2485,43.405 69.0695,45.838 C69.9135,48.342 71.6545,50.325 74.2455,51.734 C76.7955,53.119 80.0645,53.822 83.9625,53.822 C87.7275,53.822 90.9495,52.988 93.5385,51.34 C96.1415,49.682 97.8515,47.709 98.6215,45.476 C99.3715,43.301 99.7515,39.598 99.7515,34.47 L99.7515,32.228 C99.7035,32.168 99.6525,32.111 99.6045,32.051" id="Fill-90" fill="#231F20"></path>
                    <path d="M68.8481,18.5637 C68.8881,16.0467 69.0041,14.0667 69.1991,12.6807 C69.4331,11.0097 70.1481,9.3727 71.3241,7.8117 C72.5011,6.2517 74.1591,5.0057 76.2511,4.1077 C78.3651,3.2007 80.8341,2.7397 83.5891,2.7397 C84.1091,2.7397 84.6151,2.7557 85.1111,2.7837 C85.0301,2.4477 84.9581,2.1087 84.8821,1.7707 C84.4581,1.7517 84.0291,1.7397 83.5891,1.7397 C80.6981,1.7397 78.0961,2.2267 75.8561,3.1897 C73.6021,4.1567 71.8091,5.5087 70.5261,7.2097 C69.2461,8.9067 68.4661,10.7017 68.2081,12.5427 C67.9821,14.1537 67.8581,16.5217 67.8361,19.5767 C68.1671,19.2327 68.5101,18.9007 68.8481,18.5637" id="Fill-92" fill="#231F20"></path>
                    <path d="M47.7261,30.2834 C49.7571,30.3464 51.0121,30.6104 51.4881,31.0744 C51.9631,31.5364 52.2021,32.8634 52.2021,35.0524 L52.2021,39.8224 C52.2021,41.8894 51.9351,43.1834 51.4071,43.7094 C50.8751,44.2364 49.6491,44.5324 47.7261,44.5954 L47.7261,30.2834 Z M47.7261,11.1014 C49.1311,11.1254 50.0771,11.2204 50.5631,11.3874 C51.0491,11.5544 51.4451,11.9584 51.7471,12.5974 C52.0491,13.2374 52.2021,14.3554 52.2021,15.9504 C52.2021,18.9714 52.0181,20.8024 51.6501,21.4414 C51.2811,22.0814 50.4271,22.4014 49.0871,22.4014 C48.7641,22.4014 48.3091,22.4114 47.7261,22.4304 L47.7261,11.1014 Z M61.5061,27.0864 C60.4621,26.5394 59.1881,26.0964 57.6731,25.7604 C60.4681,25.1364 62.3381,24.2394 63.2881,23.0704 C64.2371,21.9034 64.7121,19.8384 64.7121,16.8784 C64.7121,12.4974 64.0371,9.3234 62.6881,7.3524 C61.3381,5.3824 59.5661,4.0724 57.3711,3.4264 C55.1771,2.7804 51.9491,2.4554 47.6881,2.4554 L34.1991,2.4554 L34.1991,53.2404 L49.2681,53.2404 C51.6051,43.6514 55.8211,34.8004 61.5061,27.0864 L61.5061,27.0864 Z" id="Fill-94" fill="#5F0E16"></path>
                    <path d="M62.3721,27.594 C56.7811,35.158 52.6241,43.836 50.2991,53.238 C55.4971,53.221 58.9661,52.921 60.6771,52.328 C62.4361,51.722 63.7201,50.589 64.5231,48.936 C65.3271,47.28 65.7291,44.731 65.7291,41.292 L65.7291,36.576 C65.7291,33.266 65.1701,30.807 64.0531,29.204 C63.6341,28.604 63.0741,28.067 62.3721,27.594" id="Fill-96" fill="#5F0E16"></path>
                    <path d="M48.2261,30.8049 C50.3791,30.9189 50.9781,31.2759 51.1391,31.4329 L51.1401,31.4329 C51.3091,31.5969 51.7021,32.2789 51.7021,35.0519 L51.7021,39.8229 C51.7021,42.3349 51.2961,43.1149 51.0551,43.3539 C50.8281,43.5789 50.1621,43.9549 48.2261,44.0719 L48.2261,30.8049 Z M47.2261,45.1119 L47.7421,45.0949 C49.8141,45.0279 51.1281,44.6909 51.7601,44.0639 C52.4021,43.4239 52.7021,42.0759 52.7021,39.8229 L52.7021,35.0519 C52.7021,31.9189 52.2071,31.0759 51.8361,30.7159 C51.2541,30.1489 49.9531,29.8529 47.7421,29.7839 L47.2261,29.7679 L47.2261,45.1119 Z" id="Fill-98" fill="#231F20"></path>
                    <path d="M49.397,52.7405 L34.699,52.7405 L34.699,2.9555 L47.689,2.9555 C51.876,2.9555 55.086,3.2745 57.23,3.9055 C59.3,4.5155 60.998,5.7705 62.275,7.6355 C63.561,9.5115 64.212,12.6225 64.212,16.8785 C64.212,19.7075 63.771,21.6845 62.9,22.7555 C62.027,23.8295 60.231,24.6765 57.564,25.2715 L55.369,25.7615 L57.565,26.2485 C59.002,26.5665 60.214,26.9855 61.208,27.4975 C61.405,27.2245 61.599,26.9495 61.801,26.6795 C61.153,26.3345 60.424,26.0275 59.608,25.7635 C61.536,25.1555 62.875,24.3715 63.676,23.3865 C64.71,22.1155 65.212,19.9865 65.212,16.8785 C65.212,12.4165 64.501,9.1165 63.101,7.0705 C61.689,5.0105 59.809,3.6235 57.512,2.9465 C55.277,2.2885 51.972,1.9555 47.689,1.9555 L33.699,1.9555 L33.699,53.7405 L49.14,53.7405 C49.22,53.4045 49.313,53.0745 49.397,52.7405" id="Fill-100" fill="#231F20"></path>
                    <path d="M62.6606,27.1965 C62.4616,27.4625 62.2716,27.7335 62.0766,28.0025 C62.7346,28.4425 63.2586,28.9385 63.6426,29.4905 C64.6956,31.0005 65.2286,33.3835 65.2286,36.5765 L65.2286,41.2925 C65.2286,44.6395 64.8406,47.1375 64.0736,48.7175 C63.3226,50.2615 62.1586,51.2895 60.5136,51.8555 C58.8796,52.4215 55.4776,52.7155 50.4296,52.7365 C50.3436,53.0705 50.2496,53.4015 50.1686,53.7385 C55.5496,53.7265 59.0496,53.4215 60.8396,52.8005 C62.7216,52.1525 64.1126,50.9255 64.9726,49.1545 C65.8176,47.4135 66.2286,44.8415 66.2286,41.2925 L66.2286,36.5765 C66.2286,33.1755 65.6346,30.5995 64.4626,28.9185 C64.0146,28.2755 63.4096,27.7025 62.6606,27.1965" id="Fill-102" fill="#231F20"></path>
                    <path d="M48.2261,11.6145 C49.5431,11.6565 50.1351,11.7685 50.4011,11.8595 C50.7531,11.9805 51.0541,12.3015 51.2951,12.8115 C51.4801,13.2045 51.7021,14.0675 51.7021,15.9505 C51.7021,19.7775 51.3981,20.8775 51.2171,21.1915 C50.8791,21.7785 49.8721,21.9015 49.0871,21.9015 C48.8631,21.9015 48.5751,21.9065 48.2261,21.9155 L48.2261,11.6145 Z M49.0871,22.9015 C50.6121,22.9015 51.6201,22.4945 52.0841,21.6905 C52.3491,21.2295 52.7021,20.1325 52.7021,15.9505 C52.7021,14.2665 52.5371,13.0995 52.1991,12.3845 C51.8381,11.6205 51.3431,11.1265 50.7261,10.9145 C50.1851,10.7285 49.2071,10.6265 47.7341,10.6015 L47.2261,10.5935 L47.2261,22.9475 L47.7431,22.9305 C48.3191,22.9115 48.7681,22.9015 49.0871,22.9015 L49.0871,22.9015 Z" id="Fill-104" fill="#231F20"></path>
                </g>
            </g>
        </g>
    </g>
</svg>