<svg id="ff132a1a-340c-4b43-a38c-df7985a14eb9" data-name="Layer 1" xmlns="http://www.w3.org/2000/svg" viewBox="0 0 550 550"><path d="M354.59,314.62l-22.8-13.17a149.06,149.06,0,0,0,0-54.8l22.8-13.16a25,25,0,0,0,9.15-34.15l-26.5-45.9a20,20,0,0,0-27.32-7.32l-27.15,15.67a147.65,147.65,0,0,0-47.44-27.42V108.05a25,25,0,0,0-25-25h-53a20,20,0,0,0-20,20v31.32a147.86,147.86,0,0,0-47.44,27.42L67.07,148.62a25,25,0,0,0-34.15,9.15l-26.5,45.9A20,20,0,0,0,13.74,231l27.13,15.66a149.06,149.06,0,0,0,0,54.8l-22.8,13.17a25,25,0,0,0-9.15,34.15l24,41.57a25,25,0,0,0,34.15,9.15l22.82-13.18a148.07,148.07,0,0,0,47.44,27.43v26.31a25,25,0,0,0,25,25h48a25,25,0,0,0,25-25V413.74a147.86,147.86,0,0,0,47.44-27.43l22.82,13.18a25,25,0,0,0,34.15-9.15l24-41.57A25,25,0,0,0,354.59,314.62ZM186.33,337.05a63,63,0,1,1,63-63A63,63,0,0,1,186.33,337.05Z" style="fill:#afafaf"/><path d="M515.65,207.27l-6.48-11.46a74.1,74.1,0,0,0,8-11.16,73.26,73.26,0,0,0,5.85-12.45l13.17.11a12.49,12.49,0,0,0,12.6-12.39l.22-26.5a10,10,0,0,0-9.91-10.09l-15.68-.13A74,74,0,0,0,510,99.35L516.65,88a12.5,12.5,0,0,0-4.43-17.11L489.38,57.46A10,10,0,0,0,475.69,61l-7.94,13.5a74.06,74.06,0,0,0-27.4-.22l-6.49-11.46a12.5,12.5,0,0,0-17-4.72L393.76,71.16A10,10,0,0,0,390,84.79l7.72,13.63A74.22,74.22,0,0,0,383.81,122l-13.17-.11a12.5,12.5,0,0,0-12.6,12.4l-.2,24a12.5,12.5,0,0,0,12.39,12.6l13.18.11a73.81,73.81,0,0,0,13.49,23.85l-6.68,11.34a12.5,12.5,0,0,0,4.43,17.11l20.69,12.18a12.5,12.5,0,0,0,17.11-4.44l6.67-11.34a73.85,73.85,0,0,0,27.4.22L473,231.41a12.51,12.51,0,0,0,17,4.72l20.88-11.82A12.51,12.51,0,0,0,515.65,207.27Zm-78.19-33a31.5,31.5,0,1,1,43.12-11.17A31.5,31.5,0,0,1,437.46,174.26Z" style="fill:#fff"/><path d="M515.34,463.08l-6.49-11.46A74.72,74.72,0,0,0,522.75,428l13.16.11a12.51,12.51,0,0,0,12.61-12.4l.22-26.49a10,10,0,0,0-9.92-10.09L523.15,379a74,74,0,0,0-13.49-23.85l6.67-11.34a12.49,12.49,0,0,0-4.43-17.11l-22.84-13.44a10,10,0,0,0-13.69,3.54l-7.94,13.5a74.06,74.06,0,0,0-27.4-.22l-6.49-11.46a12.49,12.49,0,0,0-17-4.72L393.45,327a10,10,0,0,0-3.78,13.63l7.72,13.63a74.72,74.72,0,0,0-13.9,23.61l-13.16-.11a12.5,12.5,0,0,0-12.61,12.4l-.2,24a12.5,12.5,0,0,0,12.4,12.6l13.17.11a73.81,73.81,0,0,0,13.49,23.85L389.9,462a12.5,12.5,0,0,0,4.44,17.11L415,491.32a12.5,12.5,0,0,0,17.11-4.44l6.68-11.34a74.06,74.06,0,0,0,27.4.22l6.49,11.46a12.49,12.49,0,0,0,17,4.72l20.89-11.82A12.51,12.51,0,0,0,515.34,463.08Zm-78.2-33a31.5,31.5,0,1,1,43.13-11.17A31.5,31.5,0,0,1,437.14,430.07Z" style="fill:#fff"/></svg>