<svg id="bf4dbed9-61b4-4067-a1d3-43313b80c43c" data-name="Layer 1" xmlns="http://www.w3.org/2000/svg" viewBox="0 0 550 550"><path d="M474.52,135,409,200.57l-57.62-11L340.4,132l65.54-65.54a10,10,0,0,0-4.78-16.8A122.93,122.93,0,0,0,284.89,82.13c-34,34-43.8,83.44-29.46,126.33L72.76,391.14a54.48,54.48,0,0,0,0,77.07h0a54.48,54.48,0,0,0,77.07,0L332.41,285.63a123,123,0,0,0,158.89-146A10,10,0,0,0,474.52,135Zm-348,309.84a21.5,21.5,0,1,1,0-30.41A21.5,21.5,0,0,1,126.5,444.88Z" style="fill:#fff"/><path d="M312.82,276l-91.9-91.9-2.47-55.5L111.56,47.4,56.4,102.55l80.73,107.36,55.51,2.48,91.89,91.89a60,60,0,0,0,10.29,71.1L396.64,477.2a30,30,0,0,0,42.43,0l46.66-46.67a30,30,0,0,0,0-42.43L383.91,286.28A60,60,0,0,0,312.82,276Z" style="fill:#afafaf"/></svg>