<svg id="b162e439-b3d2-49ab-a45c-22eeb8047fd0" data-name="Layer 1" xmlns="http://www.w3.org/2000/svg" viewBox="0 0 550 550"><rect x="247.75" y="83" width="55" height="110" rx="15" style="fill:#fff"/><rect x="356.75" y="220" width="55" height="110" rx="15" style="fill:#fff"/><rect x="137.75" y="357" width="55" height="110" rx="15" style="fill:#fff"/><path d="M220.75,110.5H71.25a15,15,0,0,0-15,15v25a15,15,0,0,0,15,15h149.5Z" style="fill:#afafaf"/><path d="M478.75,110.5h-176v55h176a15,15,0,0,0,15-15v-25A15,15,0,0,0,478.75,110.5Z" style="fill:#afafaf"/><path d="M329.75,247.5H71.25a15,15,0,0,0-15,15v25a15,15,0,0,0,15,15h258.5Z" style="fill:#afafaf"/><path d="M478.75,247.5h-67v55h67a15,15,0,0,0,15-15v-25A15,15,0,0,0,478.75,247.5Z" style="fill:#afafaf"/><path d="M478.75,384.5h-286v55h286a15,15,0,0,0,15-15v-25A15,15,0,0,0,478.75,384.5Z" style="fill:#afafaf"/><path d="M110.75,384.5H71.25a15,15,0,0,0-15,15v25a15,15,0,0,0,15,15h39.5Z" style="fill:#afafaf"/></svg>