<svg id="f9ae6cdf-1da3-4b70-b769-db3b2165cdcf" data-name="Layer 1" xmlns="http://www.w3.org/2000/svg" viewBox="0 0 550 550"><path d="M416.6,243.9l-24.77,24.77a10,10,0,0,0-.74,13.32l38.41,48h-79l-28,55h-95l-28-55h-79l37.58-47.19a10,10,0,0,0-.57-13.12L133.4,244.32a10,10,0,0,0-15.06.64L37.26,346.39a40,40,0,0,0-8.76,25V454a40,40,0,0,0,40,40h413a40,40,0,0,0,40-40V371.22a40,40,0,0,0-8.77-25l-81.25-101.5A10,10,0,0,0,416.6,243.9Z" style="fill:#fff"/><path d="M372.68,194H317.23V71a15,15,0,0,0-15-15h-57a15,15,0,0,0-15,15V194H174.76c-15,0-22.65,18-12.24,28.8L261.3,325.32a17,17,0,0,0,24.46,0l99.15-102.52C395.34,212,387.69,194,372.68,194Z" style="fill:#afafaf"/></svg>