<svg id="fa46dfa2-a6db-4a92-807b-2c35389f3679" data-name="Layer 1" xmlns="http://www.w3.org/2000/svg" viewBox="0 0 550 550"><path d="M224.76,53.69,37.17,54.84A35,35,0,0,0,2.39,89.62L1.24,277.21A20,20,0,0,0,7.1,291.47L195.64,480a40,40,0,0,0,56.57,0L427.57,304.66a40,40,0,0,0,0-56.57L239,59.54A20,20,0,0,0,224.76,53.69ZM125.64,178.08a41,41,0,1,1,0-58A41,41,0,0,1,125.64,178.08Z" style="fill:#afafaf"/><path d="M334.36,54.39l-49.27.3L453,222.63a75,75,0,0,1,0,106.07L303.12,478.61l2.12,2.12a40,40,0,0,0,56.57,0L537.17,305.36a40,40,0,0,0,0-56.56L348.63,60.25A20,20,0,0,0,334.36,54.39Z" style="fill:#fff"/></svg>