<svg id="a0d82fda-8a70-44ff-bb19-784dec6af723" data-name="Layer 1" xmlns="http://www.w3.org/2000/svg" viewBox="0 0 550 550"><rect x="111.25" y="301.68" width="164" height="83" rx="15" style="fill:#fff"/><rect x="111.75" y="412.18" width="164" height="83" rx="15" style="fill:#fff"/><rect x="301.75" y="412.18" width="138" height="83" rx="15" style="fill:#fff"/><path d="M526.83,158.16,292.46,59.52a45,45,0,0,0-34.92,0L23.17,158.16A35,35,0,0,0,1.75,190.42V486.68a6,6,0,0,0,6,6H50.48a6,6,0,0,0,6-6l-.69-251.44a15,15,0,0,1,15-15H478.73a15,15,0,0,1,15,15l-.32,251.48a6,6,0,0,0,6,6h42.84a6,6,0,0,0,6-6V190.42A35,35,0,0,0,526.83,158.16Z" style="fill:#afafaf"/></svg>