<svg id="ac4aecb2-a573-409c-861b-7fde85e94c69" data-name="Layer 1" xmlns="http://www.w3.org/2000/svg" viewBox="0 0 550 550"><path d="M487,158.24,417.81,89c-12.6-12.6-34.14-3.68-34.14,14.14v35.22H333a10,10,0,0,0-7.31,3.17l-188,201.33H65.17a10,10,0,0,0-10,10v49a10,10,0,0,0,10,10h95.61a10,10,0,0,0,7.32-3.18L356.67,206.38h27v35.21c0,17.82,21.54,26.75,34.14,14.15L487,186.52A20,20,0,0,0,487,158.24Z" style="fill:#afafaf"/><path d="M182.48,255.1l46.31-48.67L168.1,141.3a10,10,0,0,0-7.32-3.18H65.17a10,10,0,0,0-10,10v49a10,10,0,0,0,10,10h72.51Z" style="fill:#fff"/><path d="M487,363.48l-69.21-69.22c-12.6-12.6-34.14-3.67-34.14,14.15v35.21h-27l-44.79-48.05-46.23,48.58,60.05,64.3a10,10,0,0,0,7.31,3.17h50.66v35.22c0,17.82,21.54,26.74,34.14,14.14L487,391.76A20,20,0,0,0,487,363.48Z" style="fill:#fff"/></svg>