<svg id="ed821b5e-7bcc-4a00-93da-8eca9a4583e1" data-name="Layer 1" xmlns="http://www.w3.org/2000/svg" viewBox="0 0 550 550"><circle cx="166.81" cy="179.5" r="96" style="fill:#afafaf"/><path d="M229.81,302.5h-4.58a125.19,125.19,0,0,1-118.84,0h-4.58a100,100,0,0,0-100,100v24a40,40,0,0,0,40,40h248a40,40,0,0,0,40-40v-24A100,100,0,0,0,229.81,302.5Z" style="fill:#afafaf"/><circle cx="412.17" cy="192.46" r="82.46" style="fill:#fff"/><path d="M458.29,302.5H449a94.81,94.81,0,0,1-71.36,0h-7.92c-16.29,0-32.05,5.37-45.72,14.34,23.07,23.25,35.27,59.89,35.27,103.23V439H508.19a40,40,0,0,0,40-40v-6.5C548.19,345.06,505.73,302.5,458.29,302.5Z" style="fill:#fff"/></svg>